#N canvas 620 261 450 300 10;
#X obj 15 27 inlet~;
#X obj 62 27 inlet~;
#X obj 110 27 inlet~;
#X obj 62 49 *~;
#X obj 19 101 +~;
#X obj 19 123 outlet~;
#X text 15 7 carrier;
#X text 62 7 mod_freq;
#X text 112 7 mod_amt;
#X connect 0 0 4 0;
#X connect 1 0 3 0;
#X connect 2 0 3 1;
#X connect 3 0 4 1;
#X connect 4 0 5 0;
