#N canvas 564 177 621 491 10;
#X obj 48 397 output~;
#X obj 37 18 qunexusin 1;
#X obj 38 116 stupid-synth;
#X obj 74 183 +~;
#X floatatom 203 215 5 0 0 0 - - -;
#X floatatom 247 215 5 0 0 0 - - -;
#X floatatom 288 215 5 0 0 0 - - -;
#X floatatom 332 208 5 0 0 0 - - -;
#X floatatom 204 238 5 0 0 0 - - -;
#X floatatom 248 238 5 0 0 0 - - -;
#X floatatom 289 238 5 0 0 0 - - -;
#X floatatom 332 237 5 0 0 0 - - -;
#X obj 509 35 bng 15 250 50 0 empty empty empty 17 7 0 10 -262144 -1
-1;
#X msg 508 61 0;
#X obj 203 267 mtof;
#X floatatom 202 291 5 0 0 0 - - -;
#X obj 122 18 qunexusin 2;
#X obj 206 15 qunexusin 3;
#X obj 294 16 qunexusin 4;
#X obj 380 16 qunexusin 5;
#X obj 123 116 stupid-synth;
#X obj 207 113 stupid-synth;
#X obj 295 114 stupid-synth;
#X obj 381 114 stupid-synth;
#X obj 392 264 spigot;
#X obj 440 343 timer;
#X obj 392 290 bng 15 250 50 0 empty empty empty 17 7 0 10 -262144
-1 -1;
#X floatatom 440 371 5 0 0 0 - - -;
#X obj 399 358 != 0;
#X obj 384 382 spigot;
#X obj 420 206 != 0.496;
#X obj 342 390 bng 15 250 50 0 empty empty empty 17 7 0 10 -262144
-1 -1;
#X obj 400 331 t b f;
#X obj 400 181 t b f;
#X msg 453 272 0;
#X obj 446 241 spigot;
#X msg 500 217 1;
#X obj 453 298 t f f;
#X obj 528 157 ctlin 109 11;
#X floatatom 529 181 5 0 0 0 - - -;
#X obj 520 299 timer;
#X floatatom 520 324 5 0 0 0 - - -;
#X obj 547 256 spigot;
#X msg 571 230 0;
#X msg 498 361 1;
#X obj 530 204 t b b;
#X connect 1 0 2 0;
#X connect 1 0 4 0;
#X connect 1 1 2 1;
#X connect 1 1 5 0;
#X connect 1 2 2 2;
#X connect 1 2 6 0;
#X connect 1 3 2 3;
#X connect 1 3 7 0;
#X connect 2 0 3 0;
#X connect 3 0 0 0;
#X connect 3 0 0 1;
#X connect 5 0 32 0;
#X connect 7 0 33 0;
#X connect 8 0 14 0;
#X connect 12 0 13 0;
#X connect 13 0 2 1;
#X connect 13 0 20 1;
#X connect 13 0 21 1;
#X connect 13 0 22 1;
#X connect 13 0 23 1;
#X connect 14 0 15 0;
#X connect 16 0 8 0;
#X connect 16 0 20 0;
#X connect 16 1 9 0;
#X connect 16 1 20 1;
#X connect 16 2 10 0;
#X connect 16 2 20 2;
#X connect 16 3 11 0;
#X connect 16 3 20 3;
#X connect 17 0 21 0;
#X connect 17 1 21 1;
#X connect 17 2 21 2;
#X connect 17 3 21 3;
#X connect 18 0 22 0;
#X connect 18 1 22 1;
#X connect 18 2 22 2;
#X connect 18 3 22 3;
#X connect 19 0 23 0;
#X connect 19 1 23 1;
#X connect 19 2 23 2;
#X connect 19 3 23 3;
#X connect 20 0 3 0;
#X connect 21 0 3 0;
#X connect 22 0 3 0;
#X connect 23 0 3 0;
#X connect 24 0 26 0;
#X connect 25 0 27 0;
#X connect 26 0 25 1;
#X connect 26 0 34 0;
#X connect 28 0 29 1;
#X connect 29 0 25 0;
#X connect 29 0 31 0;
#X connect 29 0 40 0;
#X connect 29 0 44 0;
#X connect 30 0 35 0;
#X connect 31 0 36 0;
#X connect 32 0 29 0;
#X connect 32 1 28 0;
#X connect 33 0 24 0;
#X connect 33 1 30 0;
#X connect 34 0 37 0;
#X connect 35 0 24 1;
#X connect 36 0 35 1;
#X connect 37 0 24 1;
#X connect 37 1 35 1;
#X connect 38 0 39 0;
#X connect 39 0 45 0;
#X connect 40 0 41 0;
#X connect 42 0 40 1;
#X connect 43 0 42 1;
#X connect 44 0 42 1;
#X connect 45 0 43 0;
#X connect 45 1 42 0;
