#N canvas 128 525 386 164 10;
#X obj 16 74 outlet;
#X obj 61 74 outlet;
#X obj 105 74 outlet;
#X obj 105 46 / 127;
#X obj 61 48 / 127;
#X obj 171 74 outlet;
#X text 15 90 midi;
#X text 61 92 noteon;
#X text 170 93 bend;
#X text 103 93 aftertouch;
#X obj 16 20 notein \$1;
#X obj 105 20 ctlin 1 \$1;
#X obj 171 20 ctlin 2 \$1;
#X obj 171 46 expr $f1 / 127;
#X connect 3 0 2 0;
#X connect 4 0 1 0;
#X connect 10 0 0 0;
#X connect 10 1 4 0;
#X connect 11 0 3 0;
#X connect 12 0 13 0;
#X connect 13 0 5 0;
