#N canvas 563 322 450 300 10;
#X obj 17 18 inlet~;
#X obj 17 47 phasor~;
#X obj 17 105 outlet~;
#X obj 17 76 expr~ (($v1 > 0.5) - 0.5) * 2;
#X connect 0 0 1 0;
#X connect 1 0 3 0;
#X connect 3 0 2 0;
