#N canvas 23 94 511 613 10;
#X floatatom 89 171 10 0 0 0 - - -;
#X obj 22 41 mtof;
#X obj 68 279 *~;
#X obj 89 220 line~;
#X msg 89 195 \$1 10;
#X obj 68 247 pwm~;
#X obj 89 147 expr ($f1 * 0.4) + 0.1;
#X obj 258 252 line~;
#X obj 22 15 inlet;
#X obj 63 15 inlet;
#X obj 104 15 inlet;
#X obj 144 15 inlet;
#X obj 68 397 outlet~;
#X msg 234 202 \$1 10;
#X msg 305 224 \$1 1500;
#X obj 234 179 spigot;
#X obj 234 148 t f f;
#X obj 305 150 t f f;
#X obj 332 175 == 0;
#X obj 305 200 spigot;
#X text 229 116 note on aftertouch;
#X text 304 128 note off;
#X text 111 126 pwm ratio;
#X connect 0 0 4 0;
#X connect 1 0 5 0;
#X connect 2 0 12 0;
#X connect 3 0 5 1;
#X connect 4 0 3 0;
#X connect 5 0 2 0;
#X connect 6 0 0 0;
#X connect 7 0 2 1;
#X connect 8 0 1 0;
#X connect 9 0 16 0;
#X connect 9 0 17 0;
#X connect 10 0 16 0;
#X connect 11 0 6 0;
#X connect 13 0 7 0;
#X connect 14 0 7 0;
#X connect 15 0 13 0;
#X connect 16 0 15 0;
#X connect 16 1 15 1;
#X connect 17 0 19 0;
#X connect 17 1 18 0;
#X connect 18 0 19 1;
#X connect 19 0 14 0;
